<svg height="152.83429mm" viewBox="0 0 155.69838 152.83429" width="155.69838mm" xmlns="http://www.w3.org/2000/svg"><path d="m19.59807 154.72986c-5.93789-1.34703-8.96796-5.53111-5.7311-7.9138.65369-.48118 1.07786-.54567 3.26769-.49679 3.92673.0876 8.55631.77219 13.26231 1.961 4.29782 1.0857 4.32109 1.08844 5.34359.62735 1.23211-.5556 1.97378-.37146 1.76222.43754-.0988.37773.036.71029.41098 1.01391.67841.54934.47251 1.32799-.35117 1.32799-.3151 0-1.02936-.13676-1.58725-.3039-.96831-.29012-1.14974-.23658-3.99944 1.18025-1.64182.81629-3.6995 1.67069-4.57262 1.89867-2.34652.61269-5.76744.73005-7.80521.26778zm6.38639-1.57214c1.99215-.42226 5.59596-1.85079 6.0504-2.39836.24485-.29502.0848-.42133-.84171-.66431-.62922-.16501-1.73935-.46695-2.46695-.67099-3.33278-.9346-12.4947-1.9216-13.6743-1.47312-1.31493.49993-1.19255 1.87139.28065 3.1453 1.07539.92991 2.02758 1.37636 4.08668 1.91609 2.29008.60028 4.21769.64296 6.56523.14539zm60.15632 1.77986c-1.60918-.22254-3.98409-.93095-5.64369-1.68344-.93805-.42533-1.98673-.77333-2.33041-.77333-.43097 0-.62486-.15147-.62486-.48816 0-.26849-.22672-.69334-.50382-.94411-.4273-.3867-.58739-.40376-1.05405-.11233-.4666.29139-.61859.27528-.99985-.10599-.4231-.42309-.42175-.4804.0228-.97161.64653-.71441 4.08595-2.46286 6.55994-3.33479 1.88236-.66341 2.1804-.87584 3.84278-2.73892 4.285447-4.80283 7.536257-9.50732 10.211847-14.77835 4.387893-8.64435 5.871253-15.01861 5.229053-22.47016-.37799-4.38611-1.330733-9.669333-2.354713-13.057673-2.40727-7.9656-8.05454-18.95119-13.490097-26.24216-2.61521-3.5079-5.11507-6.52836-5.42184-6.55094-.11382-.008-1.12585.62196-2.24896 1.40076-7.20588 4.99672-15.96305 8.37932-23.72291 9.16336-5.59158.56497-14.63836-1.31582-19.55511-4.06542-4.54105-2.5395-10.66961-8.83634-13.29502-13.660091-.39529-.72628-.8028-1.32051-.90556-1.32051-.25832 0-1.45124.92988-3.12381 2.43499-1.58782 1.428851-2.42608 1.642081-2.42608.617141 0-.49283.57815-1.148941 2.36763-2.686951l2.36762-2.0349-.4076-.95108c-.22418-.52309-.64649-1.56361-.93847-2.31227-.63107-1.6181-.81464-1.68151-4.86815-1.68151-2.38931 0-2.76886-.0619-2.9972503-.48863-.48523-.90667.15038-1.09887 3.6339603-1.09887 3.27779 0 3.28487-.001 3.12569-.59531-.0877-.32742-.16116-2.26606-.16315-4.30808l-.004-3.71277-3.10885-1.01868c-7.3093403-2.39505-10.0805803-3.75884-9.6925803-4.76996.22007-.5735.70506-.51712 2.23924.2603 3.06152 1.5514 9.9525403 3.82584 17.4469003 5.75852 4.37017 1.12699 5.2947 1.60407 4.55057 2.3482-.25932.25932-1.32743.0716-5.17399-.90957-2.66597-.68-5.06345-1.31934-5.32775-1.42076-.45237-.17359-.47236.00027-.34099 2.96737.0768 1.73348.28486 3.71031.46245 4.39295l.32288 1.24116 1.49387.17242c2.33736.26978 3.07201.50927 3.17315 1.03443.13922.72293-.37096.88954-2.25965.73794l-1.71354-.13755.94947 1.88538.94946 1.88538.90105-.42968c.49557-.23632 1.09046-.35699 1.32197-.26815.70244.26955.49339 1.1854-.37283 1.63334-.43656.22575-.79375.50801-.79375.62723 0 .44327 2.08533 3.418411 4.04838 5.775851 3.95335 4.74758 6.53439 6.98843 10.10833 8.77604 6.81705 3.40975 16.7554 4.18474 24.41426 1.90383 5.6637-1.68672 14.40515-5.92916 18.08157-8.77543 1.81014-1.4014 4.7308-4.23894 4.7308-4.596171 0-.14997-.54926-.56406-1.22057-.92019-1.83422-.97305-3.8503-2.8811-3.75396-3.5528.13068-.91104.90561-.79374 2.00246.30311.88778.88777 3.6561 2.70748 4.1189 2.70748.31221 0 2.37958-3.28873 3.22303-5.12712.95309-2.07737 2.04101-5.67284 1.82316-6.02533-.0764-.12355-1.96952-.22463-4.20704-.22463-4.38808 0-5.42556-.20112-5.42556-1.05178 0-.29465.14882-.54514.33073-.55665.1819-.0115 2.50362-.003 5.15937.0191 2.65576.022 4.828647-.0436 4.828647-.14566 0-.77516 1.44128-6.37426 1.6789-6.52219.81963-.51027.76244.80848-.25852 5.96141l-.14799.7469 5.91543-.18841c4.958263-.15793 5.965983-.12751 6.227843.18801.19838.23903.22491.51804.0727.76442-.22801.36906-4.375263.66109-10.784683.75939-1.08517.0166-1.69418.14027-1.75482.35622-1.658977 5.90758-2.427007 7.85576-4.176227 10.59339-.4452.69676-.76437 1.30982-.70926 1.36236.0551.0525 1.50862.758601 3.23006 1.569011 2.461687 1.15892 3.110687 1.57413 3.039997 1.94493-.15748.8261-1.09763.66096-4.028457-.70761-1.5718-.73396-2.99429-1.33144-3.16108-1.32772-.16679.004-1.16107.94055-2.2095 2.08184l-1.90625 2.07508 1.1125 1.16276c.61187.63952 2.16897 2.57738 3.46021 4.30635 7.692927 10.30082 13.727397 22.78757 15.73926 32.56825 2.04135 9.924073 1.77204 17.301563-.90305 24.738543-1.319023 3.66698-4.095353 9.38934-5.868153 12.09498l-.39501.60286.97737-.40837c1.74127-.72755 7.966153-1.03618 13.695983-.67905 15.45828.9635 15.34156.96696 17.80938-.52869 5.85815-3.55041 11.20924-8.36975 13.71622-12.3532 1.08329-1.72129 2.08628-5.11661 3.43526-11.62903.67092-3.23897 1.39357-6.30479 1.60588-6.81292.62511-1.49609 1.63303-2.630373 3.88628-4.373473 4.69-3.62814 6.59482-7.56995 7.91378-16.37665.59229-3.9548 1.08878-19.3323.62417-19.3323-.1332 0-.3949.24456-.58156.54346-.22805.36516-.50405.49119-.84128.38416-.64371-.20431-.88409.24994-1.54604 2.9216-.38834 1.56739-.559 3.41959-.66921 7.26328-.22689 7.91242-1.24368 12.85981-3.29241 16.01974-.56165.86628-2.07453 2.52755-3.36195 3.69172-5.59309 5.05761-6.6458 6.28963-8.33671 9.756673-.90957 1.86498-2.51959 6.03237-3.84591 9.95479-1.25476 3.71078-2.77109 7.75199-3.36963 8.98047-2.19548 4.50611-5.88401 7.36502-10.2718 7.96148-2.12525.2889-9.46918-.0246-12.53942-.53525-3.94922-.65688-8.70252-.14539-9.787203 1.05316-.57363.63386-1.41158.69501-1.63256.11914-.20488-.53391 1.08114-1.89231 2.26133-2.38861 1.765553-.74245 5.286673-.94175 8.546493-.48375 1.64625.23131 5.26297.48464 8.03713.56297 4.26226.12035 5.28736.0725 6.61459-.30906 3.26926-.93977 5.71194-3.25631 7.54498-7.15534.5473-1.16417 1.8834-4.73604 2.9691-7.9375 4.14606-12.22573 5.41709-14.457573 10.77855-18.926493 3.41158-2.84365 4.74128-4.37066 5.8279-6.69272 1.47082-3.14307 2.46907-9.97686 2.3449-16.05267-.0696-3.40384.48087-6.06103 1.80867-8.73125.58637-1.17918.84909-1.45604 1.38508-1.45959.3638-.002.92155-.15126 1.23945-.33077.7831-.4422 1.86732-.0111 2.20488.8768.33113.87094.32741 11.66408-.005 15.94527-.45309 5.82678-1.87638 12.32737-3.33875 15.24899-1.05675 2.11127-3.24317 4.80806-4.98385 6.14725-2.35477 1.811613-3.30773 2.752233-3.8462 3.796363-.26483.51352-1.08467 3.78774-1.82187 7.27604-1.85333 8.76962-2.60502 10.86151-4.96129 13.80696-2.73905 3.42393-5.58373 5.98195-10.19287 9.16573-4.79388 3.31138-6.02187 3.59993-13.18776 3.09887-9.86646-.6899-12.50124-.78114-16.35707-.56646-3.300023.18374-4.192793.32294-5.098273.7949-.9959.51909-1.13971.53414-1.55065.16224-.41737-.37771-.53437-.29077-1.48963 1.10694-.57017.83427-2.1517 2.87688-3.514517 4.53912l-2.47785 3.02227 1.41952-.17528c6.899507-.85195 8.204907-.81349 9.504447.28 1.48241 1.24737 1.97029 2.88912 1.45215 4.88658-.63226 2.43743-2.77194 3.89804-6.75012 4.60785-1.92683.34379-4.050677.41277-5.697387.18504zm5.748517-1.7848c2.57241-.54515 4.06822-1.28043 4.69448-2.30762 1.03599-1.69924.48806-4.13843-1.05008-4.67463-.97149-.33867-5.6113.008-8.975747.67038-2.07073.40776-2.35199.54511-3.96876 1.93811-2.06638 1.7804-2.49898 2.27172-2.29328 2.60456.22422.36279 3.78551 1.61644 5.32092 1.87307 2.06196.34465 4.333537.30703 6.272467-.10387zm-12.346457-3.60861.77711-.81996-1.04475.43155c-1.30915.54077-1.41471.64883-.93196.95413.21406.13538.3967.24797.40585.2502.009.002.36635-.36494.79375-.81592zm-27.6656 3.20206c-5.83698-.33863-10.09166-1.42191-10.27116-2.61515-.12973-.86234.48246-.90922 2.62244-.20081 2.79353.92476 6.73329 1.28257 14.49759 1.31667 8.77738.0385 10.28869-.26343 12.63375-2.52433 1.79629-1.73181 3.02222-.88579 1.39763.96451-1.13575 1.29355-2.67651 2.1564-4.74425 2.65683-2.11351.51151-10.60434.72319-16.136.40228zm-19.44688-4.84063c-3.77305-2.03995-7.03922-5.02926-9.4217-8.62306-4.15492-6.26742-7.73342-16.64242-8.85292-25.66692-.74071-5.97099-.33743-15.765143.96532-23.444193.91959-5.42047 2.23233-10.32597 5.02707-18.78542 1.5127-4.57878 2.25024-6.04852 3.0963-6.17012.88951-.12784.95537.52292.19723 1.94879-1.65836 3.11894-5.86825 17.37878-6.87034 23.27134-2.14954 12.639963-1.81393 23.120533 1.06016 33.107693 3.40594 11.83524 8.25481 19.12532 15.29467 22.99491 1.40638.77305 1.76465 1.09352 1.70122 1.52178-.12008.81081-.45463.78724-2.19701-.1548zm-9.28752-27.04675c-.39093-.59662-.43183-1.93649-.39422-12.91177.0231-6.73534.13534-12.597263.24946-13.026493.21516-.80925 1.34472-1.30062 1.38016-.60037.01.19202.002 5.61616-.0165 12.053633l-.0342 11.70451.77122-.15424c.62334-.12467.87814-.0183 1.32883.55465.66904.85055.89934.74348 1.65488-.76935.67791-1.35738 1.61216-1.93083 2.12969-1.30723.26004.31332.26519.50336.0229.84506-.17193.24247-.56542.9171-.87441 1.49918-1.14659 2.16-2.11828 2.70235-3.32603 1.85641-.51624-.36159-.59439-.34073-.99101.26458-.55196.84241-1.34545.83883-1.90069-.009zm53.98553-.31471c-.38658-.38658-.43039-.82978-.30572-3.09231.10551-1.91482.0271-3.19128-.28517-4.64198-.34842-1.61869-.43114-3.66883-.43304-10.73217-.003-9.605253.16714-11.085143 1.25358-10.930543.56555.0805.57723.15502.44839 2.86075-.2988 6.274653-.11248 16.194143.34826 18.541453.24502 1.24827.44549 2.76632.44549 3.37344 0 .80228.10786 1.10386.39483 1.10386.21716 0 .71309.35719 1.10207.79375s.85201.79375 1.02897.79375.63958-.41672 1.02806-.92604c.68127-.89318 1.53668-1.20083 1.86442-.67054.22868.37002-.81117 2.28379-1.50493 2.76972-.74279.52027-1.7088.52597-2.6869.0159-.9256-.48273-.96194-.48422-.96194-.0394 0 .34677-.80927 1.23163-1.12641 1.23163-.0873 0-.36177-.20306-.60996-.45125zm-45.97833-4.2451c-.10252-.16825-.2984-20.738363-.2066-21.695843.0477-.49789 1.00183-.3972 1.25357.13229.37237.78322.45304 20.941003.0856 21.383763-.33785.40709-.93615.50207-1.13255.17979zm53.32387-1.1774c-.4169-.4169-.45825-22.208463-.0436-22.983233.30301-.56619 1.3059-.70302 1.32693-.18104.007.1819.002 5.38568-.0129 11.563953-.025 10.71327-.10322 11.91782-.77367 11.91782-.0986 0-.32215-.14287-.49677-.3175zm-42.02282-68.734904c-.90109-.36387-1.69389-1.72377-2.01662-3.45914-.25047-1.34686-.23712-1.65011.0815-1.85151.77169-.48776 1.07175-.10299 1.6917 2.16928.44388 1.62693.83562 1.94114 1.91056 1.53245.94525-.35938 1.61366-1.15496 2.40832-2.86649.61475-1.32406.65216-1.62743.51006-4.13663-.14539-2.5675-.12247-2.73677.44246-3.2675.6661-.62576 1.38041-.7302 1.56633-.229.0675.1819.0628.87989-.0105 1.55108s.008 1.64934.18144 2.17366c.42698 1.29375 2.42141 3.45432 3.80859 4.12584 1.63742.79267 2.45213.72541 2.95333-.24381.44167-.85409 1.29505-1.06357 1.55657-.38208.1858.48419-.38712 1.97483-.92027 2.39439-1.4549 1.14491-5.2169-.17248-7.19053-2.518l-.66202-.78676-.56014 1.53624c-.72335 1.98386-2.30773 3.79585-3.67801 4.2064-1.19419.35779-1.30752.36061-2.07279.0516zm24.5074-14.55593c-.29104-.29105-.52917-.76729-.52917-1.05834 0-.29104.23813-.76729.52917-1.05833s.76729-.52917 1.05833-.52917.76729.23813 1.05834.52917c.29104.29104.52916.76729.52916 1.05833 0 .29105-.23812.76729-.52916 1.05834-.29105.29104-.7673.52916-1.05834.52916s-.76729-.23812-1.05833-.52916zm17.41083-.82546c-.14574-.0902-.22225-.38785-.17002-.66146.16348-.85641 2.87529-.9706 18.11482-.76279 12.21712.16659 14.44959.25537 14.57398.57955.0808.21054.0418.48728-.0867.61496-.26252.26091-32.01827.48587-32.43212.22974zm-53.12958-1.29121c-.29104-.29104-.52917-.76729-.52917-1.05833s.23813-.7673.52917-1.05834.76729-.52916 1.05833-.52916.76729.23812 1.05833.52916c.29105.29104.52917.7673.52917 1.05834s-.23812.76729-.52917 1.05833c-.29104.29104-.76729.52917-1.05833.52917s-.76729-.23813-1.05833-.52917zm-20.7166-1.52872c-.7341903-.81127-1.6485803-3.18389-3.1836603-8.26086-1.43098-4.73265-3.09968-11.1705499-3.46649-13.3737799-.42288-2.54005 2.02676-2.76113 8.7136203-.78642 2.32834.68759 6.37646 1.82544 8.99584 2.52856 5.7813 1.55188 7.60573 2.1696799 7.75821 2.6271199.0829.24872-.0638.30359-.51379.19212-2.7821-.68925-14.0723-3.7622299-17.13842-4.6647499-4.0051503-1.17893-6.2541203-1.53986-6.8935203-1.10631-.33245.22543-.31961.53459.0968 2.32847.86192 3.7133999 5.2376703 18.7113699 5.7636703 19.7551099.57405 1.13906.51542 1.47638-.13223.76074zm6.27795-5.65248c-.52336-1.03924-1.81421-3.27166-2.86856-4.96094-3.04155-4.87313-3.90587-6.54273-3.81165-7.36295.0739-.6432799.21107-.7459599 1.09367-.8186699 1.27823-.10529 3.21496.7871799 7.45748 3.4365099 1.74625 1.09049 3.91636 2.38562 4.82247 2.87807 1.78786.97167 2.15552 1.45604 1.55842 2.05314-.33752.33752-.64296.24471-2.45712-.74662-1.13943-.62263-3.49002-2.01899-5.22353-3.10302-3.56289-2.228-4.83389-2.8874-5.08381-2.63748-.16484.16484 2.09068 4.15869 3.62494 6.41871 1.28544 1.89348 3.22706 5.90011 3.06449 6.32374-.0863.22497-.39733.40904-.69111.40904-.39711 0-.77826-.48474-1.48569-1.88953zm78.263867-5.29941c-.21774-.21774-.33026-1.33518-.34047-3.38116-.008-1.68077-.10345-3.53219-.21126-4.1142699l-.19601-1.05833-.91322 1.25158c-.50227.6883599-1.34195 2.0575799-1.86595 3.0426999-.66165 1.2439-1.12646 1.81696-1.52136 1.87568-.927577.13792-.751107-1.39947.37595-3.27511 1.21773-2.0265399 3.28612-4.7485899 3.90063-5.1333099.6877-.43054 1.47255-.0903 1.69498.73474.10527.39048.19485 2.8508499.19905 5.4674799.007 4.05095-.0521 4.76922-.39473 4.83637-.22131.0434-.54873-.0675-.72761-.24637zm3.13766-.68241c-.31815-1.20628-.96081-6.01528-1.34316-10.0508699-.3407-3.59582-.41837-3.83914-1.15886-3.63038-2.6586.7495-6.308437 3.31078-10.517397 7.3805799-1.58338 1.53103-2.87888 2.6055-2.87888 2.38772 0-.60162 4.60434-5.1111899 7.143747-6.9967099 2.55154-1.89453 5.75219-3.52779 6.66015-3.39862.96424.13719 1.25204 1.1577 1.80129 6.38715.28201 2.6850499.63578 5.6401499.78616 6.5668799.33905 2.08955.34157 2.34644.023 2.34644-.13991 0-.37214-.44649-.51607-.99219zm-31.951507-4.19144c-.0889-.23162.20767-1.38845.65899-2.5707299.91977-2.4094.98239-2.25626-1.27453-3.11684-2.50375-.95471-5.29402-1.56172-7.99139-1.73849-2.45155-.16066-2.59642-.14168-2.53904.33267.0335.27668-.0381 1.54175-.15904 2.81126-.2374 2.4920299-.61707 3.1940899-1.38342 2.5580799-.3615-.30001-.4043-.7081399-.26473-2.5239099.0916-1.19131.23883-2.35453.32724-2.58493.13154-.34277-.0488-.41862-.99204-.41734-2.34647.003-8.2626 1.10055-11.49748 2.13266l-.81969.26153.12315 1.91895c.0994 1.5493699.0407 1.9873499-.30479 2.2740999-.78005.64739-1.22169-.0826-1.22169-2.0192999 0-1.53091-.0499-1.69498-.46302-1.5233-1.25477.52141-2.71319.87005-2.83244.67711-.3138-.50775 7.32676-3.36819 11.23297-4.20536 7.74117-1.65907 13.69057-1.30428 19.45776 1.16034 1.17015.50006 2.21989.90921 2.33275.90921.11287 0 .58422.28191 1.04745.62646s2.06081 1.26728 3.55016 2.05052c1.48935.7832299 2.70974 1.5728899 2.71198 1.7547899.007.535-.38.40792-3.46369-1.1386099-1.61137-.80813-3.0493-1.42949-3.19538-1.3808-.14609.0487-.62044 1.00756-1.05411 2.1307999-.61102 1.58256-.90509 2.04226-1.30644 2.04226-.28486 0-.59065-.18951-.67953-.42113z" stroke-width=".264583" transform="translate(-3.585844 -2.23566)"/></svg>